<svg width="20" height="21" viewBox="0 0 20 21" fill="none" xmlns="http://www.w3.org/2000/svg">
<path fill-rule="evenodd" clip-rule="evenodd" d="M11.6667 5.15678C11.6667 3.54595 12.9725 2.24011 14.5833 2.24011C16.1942 2.24011 17.5 3.54595 17.5 5.15678C17.5 6.7676 16.1942 8.07345 14.5833 8.07345C13.769 8.07345 13.0327 7.73975 12.5036 7.20165L8.22756 9.79233C8.29649 10.0409 8.33333 10.3029 8.33333 10.5734C8.33333 10.8165 8.3036 11.0526 8.24758 11.2783L12.6009 13.8508C13.1212 13.3684 13.8178 13.0734 14.5833 13.0734C16.1942 13.0734 17.5 14.3793 17.5 15.9901C17.5 17.6009 16.1942 18.9068 14.5833 18.9068C12.9725 18.9068 11.6667 17.6009 11.6667 15.9901C11.6667 15.7471 11.6964 15.511 11.7524 15.2853L7.39908 12.7128C6.87875 13.1952 6.18214 13.4901 5.41667 13.4901C3.80585 13.4901 2.5 12.1843 2.5 10.5734C2.5 8.96263 3.80585 7.65678 5.41667 7.65678C6.15373 7.65678 6.82695 7.93019 7.34042 8.38112L11.7222 5.72633C11.6858 5.54212 11.6667 5.35168 11.6667 5.15678ZM14.5833 3.90678C13.893 3.90678 13.3333 4.46643 13.3333 5.15678C13.3333 5.84713 13.893 6.40678 14.5833 6.40678C15.2737 6.40678 15.8333 5.84713 15.8333 5.15678C15.8333 4.46643 15.2737 3.90678 14.5833 3.90678ZM5.41667 9.32345C4.72632 9.32345 4.16667 9.8831 4.16667 10.5734C4.16667 11.2638 4.72632 11.8234 5.41667 11.8234C6.10701 11.8234 6.66667 11.2638 6.66667 10.5734C6.66667 9.8831 6.10701 9.32345 5.41667 9.32345ZM14.5833 14.7401C13.893 14.7401 13.3333 15.2998 13.3333 15.9901C13.3333 16.6805 13.893 17.2401 14.5833 17.2401C15.2737 17.2401 15.8333 16.6805 15.8333 15.9901C15.8333 15.2998 15.2737 14.7401 14.5833 14.7401Z" fill="#C9C9C9"/>
</svg>
